<?xml version="1.0" encoding="UTF-8"?>
<svg version="1.1" xmlns="http://www.w3.org/2000/svg" width="996" height="238">
<!-- <path d="M0 0 C328.68 0 657.36 0 996 0 C996 78.54 996 157.08 996 238 C667.32 238 338.64 238 0 238 C0 159.46 0 80.92 0 0 Z " fill="#FAF4F0" transform="translate(0,0)"/> -->
<path d="M0 0 C254.1 0 508.2 0 770 0 C770 17.49 770 34.98 770 53 C515.9 53 261.8 53 0 53 C0 35.51 0 18.02 0 0 Z " fill="#047ABE" transform="translate(202,150)"/>
<!-- <path d="M0 0 C49.5 0 99 0 150 0 C150 60.06 150 120.12 150 182 C100.5 182 51 182 0 182 C0 121.94 0 61.88 0 0 Z " fill="#F9F3F0" transform="translate(21,18)"/> -->
<path d="M0 0 C1.15025036 0.89015476 2.29783038 1.78383826 3.4375 2.6875 C1.4375 3.6875 1.4375 3.6875 -1.73046875 2.796875 C-3.07139396 2.34696042 -4.41116082 1.89358463 -5.75 1.4375 C-25.82303972 -4.97685914 -50.51075169 -9.17067346 -70.66015625 -0.87109375 C-77.86678837 2.99895499 -83.79508549 7.70615388 -87.8125 14.9375 C-89.16309653 19.88968729 -89.53190215 24.19416482 -87.640625 29.05859375 C-82.45430313 38.10414926 -73.24263439 41.06652956 -63.6875 43.875 C-43.68585628 48.74408701 -23.03818502 49.5722099 -2.5625 50.6875 C-2.23175963 65.25110078 -3.13650927 79.68559709 -4.16162109 94.20922852 C-4.43669875 98.11362721 -4.7015053 102.0186219 -4.96484375 105.92382812 C-5.89773474 119.54539805 -6.98387399 133.12470169 -8.5625 146.6875 C-8.8925 146.6875 -9.2225 146.6875 -9.5625 146.6875 C-9.61847855 146.0879097 -9.67445709 145.4883194 -9.73213196 144.87055969 C-10.44423937 137.24683469 -11.15928055 129.62338666 -11.875 122 C-11.98854828 120.78855316 -12.10209656 119.57710632 -12.21908569 118.32894897 C-13.81944028 101.18866843 -13.81944028 101.18866843 -15.5625 84.0625 C-15.63421921 83.38728806 -15.70593842 82.71207611 -15.77983093 82.0164032 C-16.09427601 79.07345567 -16.41666101 76.13162755 -16.74926758 73.19067383 C-17.42627759 66.99327552 -17.70935404 60.92149682 -17.5625 54.6875 C-19.13378662 54.70321045 -19.13378662 54.70321045 -20.73681641 54.71923828 C-24.69169582 54.75594183 -28.64656081 54.77858003 -32.6015625 54.79736328 C-34.30048164 54.80730786 -35.99938419 54.82086831 -37.69824219 54.83837891 C-50.46040013 54.96645251 -63.28508614 55.00850507 -75.4375 50.5625 C-76.42492187 50.20929688 -77.41234375 49.85609375 -78.4296875 49.4921875 C-79.13351563 49.22664063 -79.83734375 48.96109375 -80.5625 48.6875 C-80.55089844 49.491875 -80.53929688 50.29625 -80.52734375 51.125 C-80.43366588 63.32988872 -80.99307796 75.49793078 -81.5625 87.6875 C-80.634375 87.64625 -79.70625 87.605 -78.75 87.5625 C-75.59698616 87.55975108 -72.70446914 87.97906254 -69.61328125 88.58984375 C-62.38066335 89.99285543 -55.07892451 90.59490544 -47.75 91.25 C-45.67425333 91.43848428 -43.59865966 91.62841285 -41.52326965 91.82078552 C-39.65405334 91.99363413 -37.78443474 92.16211633 -35.91479492 92.33032227 C-32.76775833 92.66563029 -29.67740421 93.13191333 -26.5625 93.6875 C-26.5625 94.0175 -26.5625 94.3475 -26.5625 94.6875 C-32.28711894 95.12140473 -38.01220322 95.54833728 -43.73779297 95.96923828 C-45.67933658 96.11290158 -47.62074823 96.25836155 -49.56201172 96.40576172 C-60.58468849 97.24141591 -71.50102747 97.94184086 -82.5625 97.6875 C-82.65337891 99.62302734 -82.65337891 99.62302734 -82.74609375 101.59765625 C-82.83055881 103.31511255 -82.91520377 105.03256002 -83 106.75 C-83.03931641 107.59755859 -83.07863281 108.44511719 -83.11914062 109.31835938 C-83.36257529 114.16832684 -83.86302729 118.8786251 -84.5625 123.6875 C-84.80545475 126.66395122 -84.96912152 129.64286585 -85.125 132.625 C-85.16818359 133.40423828 -85.21136719 134.18347656 -85.25585938 134.98632812 C-85.36078077 136.88657117 -85.4620245 138.78701669 -85.5625 140.6875 C-86.2225 140.6875 -86.8825 140.6875 -87.5625 140.6875 C-87.64814209 139.66390381 -87.73378418 138.64030762 -87.82202148 137.58569336 C-88.14239543 133.76309031 -88.46545891 129.94071839 -88.78930664 126.1184082 C-88.92870471 124.46872982 -89.06738778 122.81899085 -89.20532227 121.16918945 C-89.40449965 118.78840848 -89.60630602 116.40786223 -89.80859375 114.02734375 C-89.8690538 113.29789047 -89.92951385 112.56843719 -89.99180603 111.81687927 C-90.27382383 108.52501454 -90.62099415 105.28303633 -91.09423828 102.01074219 C-91.51360118 99.03453378 -91.72812718 96.17688634 -91.80859375 93.17578125 C-91.84009521 92.17724121 -91.87159668 91.17870117 -91.90405273 90.14990234 C-91.93571533 89.11043457 -91.96737793 88.0709668 -92 87 C-92.25612628 79.85721837 -92.58587548 72.9502977 -94.046875 65.9375 C-94.50158231 63.07146606 -94.73056271 60.33077794 -94.890625 57.4375 C-95.74214298 42.80564046 -95.74214298 42.80564046 -103.5625 30.6875 C-105.43254655 25.07736035 -105.67097629 18.65378255 -103.5859375 13.07421875 C-102.35297012 10.82386417 -101.07442337 8.76042652 -99.5625 6.6875 C-98.96953125 5.87152344 -98.3765625 5.05554688 -97.765625 4.21484375 C-73.67771301 -23.41792053 -27.2089921 -20.32306089 0 0 Z " fill="#EB393E" transform="translate(147.5625,44.3125)"/>
<!-- <path d="M0 0 C52.47 0 104.94 0 159 0 C159 63.36 159 126.72 159 192 C106.53 192 54.06 192 0 192 C0 128.64 0 65.28 0 0 Z M5 5 C5 65.06 5 125.12 5 187 C54.5 187 104 187 155 187 C155 126.94 155 66.88 155 5 C105.5 5 56 5 5 5 Z " fill="#1381C2" transform="translate(16,13)"/> -->
<path d="M0 0 C4.16253275 -0.09938095 8.32442479 -0.17170617 12.48779297 -0.21972656 C13.90197795 -0.23975843 15.31608097 -0.26699248 16.72998047 -0.30175781 C18.77071419 -0.35065489 20.8103469 -0.37305123 22.8515625 -0.390625 C24.68968506 -0.4220459 24.68968506 -0.4220459 26.56494141 -0.45410156 C31.81358383 0.23974882 34.84404213 2.7527823 38.375 6.5625 C40.68099355 11.44056327 40.89920813 15.6969777 40 21 C38.33880041 24.69009552 36.21475578 27.17825344 32.875 29.4375 C31 30 31 30 28 30 C31.27744407 36.29783371 34.77029698 42.4600783 38.5 48.5 C39.03258423 49.398396 39.03258423 49.398396 39.57592773 50.31494141 C42.14128788 54.39053052 44.50436157 56.31116228 49 58 C53.66280399 58.38123917 53.66280399 58.38123917 58 57 C58 39.18 58 21.36 58 3 C56.02 2.34 54.04 1.68 52 1 C52 0.67 52 0.34 52 0 C64.87 0 77.74 0 91 0 C91 4.29 91 8.58 91 13 C89 10 89 10 88 7.375 C87.23952738 4.84860062 87.23952738 4.84860062 85 4 C83.5534758 3.84932786 82.1012066 3.75138964 80.6484375 3.68359375 C79.88192871 3.64548584 79.11541992 3.60737793 78.32568359 3.56811523 C77.35195801 3.52501221 76.37823242 3.48190918 75.375 3.4375 C72.28125 3.293125 69.1875 3.14875 66 3 C66 10.92 66 18.84 66 27 C69.6196875 26.814375 69.6196875 26.814375 73.3125 26.625 C74.06829346 26.59100098 74.82408691 26.55700195 75.6027832 26.52197266 C79.21109834 26.30838282 80.93053457 26.04631029 84 24 C84.73343428 20.93443402 84.73343428 20.93443402 85 18 C85.66 18 86.32 18 87 18 C87 24.93 87 31.86 87 39 C86.34 39 85.68 39 85 39 C84.71125 37.865625 84.4225 36.73125 84.125 35.5625 C83.75375 34.386875 83.3825 33.21125 83 32 C79.95887002 30.47943501 76.71802203 30.6258839 73.375 30.4375 C70.94125 30.293125 68.5075 30.14875 66 30 C66.33 38.58 66.66 47.16 67 56 C70.0525 56.0825 73.105 56.165 76.25 56.25 C77.20551758 56.28641602 78.16103516 56.32283203 79.14550781 56.36035156 C84.13940326 56.47178181 84.13940326 56.47178181 88.46875 54.21875 C89.82285957 52.25667286 91.11999776 50.34857559 92.25 48.25 C92.8275 47.1775 93.405 46.105 94 45 C94.66 45 95.32 45 96 45 C95.54548816 46.73017508 95.08621143 48.45909877 94.625 50.1875 C94.24214844 51.63189453 94.24214844 51.63189453 93.8515625 53.10546875 C93.05183683 55.82380233 92.06996061 58.37917591 91 61 C83.53229974 61.51034493 76.06911511 61.85848051 68.58789062 62.09863281 C66.04907403 62.19876426 63.51139867 62.33494548 60.9765625 62.50878906 C40.48093458 63.87838684 40.48093458 63.87838684 34.70385742 59.10131836 C30.82079996 54.37588125 28.37815872 49.13702544 26.07092285 43.5111084 C24.46502886 39.74559543 22.69596311 36.10926811 20 33 C17.34148231 31.87786106 17.34148231 31.87786106 15 32 C15.13842295 35.95862931 15.28699006 39.91681327 15.4375 43.875 C15.47681641 45.00292969 15.51613281 46.13085938 15.55664062 47.29296875 C15.59853516 48.36933594 15.64042969 49.44570312 15.68359375 50.5546875 C15.72025146 51.54968262 15.75690918 52.54467773 15.79467773 53.56982422 C15.84959532 56.00779501 15.84959532 56.00779501 17 58 C19.52733235 58.65555119 19.52733235 58.65555119 22 59 C22 59.66 22 60.32 22 61 C14.74 61 7.48 61 0 61 C0 60.34 0 59.68 0 59 C0.969375 58.71125 1.93875 58.4225 2.9375 58.125 C6.10664203 57.35785318 6.10664203 57.35785318 7 55 C7.0902835 53.36582405 7.11755658 51.72797163 7.11352539 50.09130859 C7.11344986 49.07040131 7.11337433 48.04949402 7.11329651 46.99765015 C7.10813522 45.89240997 7.10297394 44.7871698 7.09765625 43.6484375 C7.09553383 41.95468491 7.09553383 41.95468491 7.09336853 40.22671509 C7.08775744 36.60945012 7.07520303 32.99224636 7.0625 29.375 C7.05748643 26.92708423 7.05292328 24.47916748 7.04882812 22.03125 C7.0377844 16.02081234 7.02103544 10.01041054 7 4 C4.69 3.01 2.38 2.02 0 1 C0 0.67 0 0.34 0 0 Z " fill="#CD4247" transform="translate(835,75)"/>
<path d="M0 0 C3.983314 -0.12467036 7.96585506 -0.21483313 11.95068359 -0.2746582 C13.96362253 -0.31182827 15.97601837 -0.3753997 17.98828125 -0.43945312 C25.52477598 -0.53413271 31.34129087 -0.39272642 37 5 C39.93259984 9.03232479 40.58728988 12.79558415 40.421875 17.68359375 C39.68872348 21.70913869 37.74136594 24.99171158 35 28 C32.34306731 29.63704711 31.18389383 30 28 30 C35.61769162 46.59520858 35.61769162 46.59520858 48.25 58.3125 C49.1575 58.539375 50.065 58.76625 51 59 C51 59.66 51 60.32 51 61 C46.23286666 62.41513104 41.56022065 63.34841767 37 61 C31.89807635 55.38642211 28.70115692 48.27248904 25.30371094 41.55371094 C23.7091054 38.43019521 22.239431 35.70710334 20 33 C17.43450708 32.32308433 17.43450708 32.32308433 15 32 C15.1387078 35.93778511 15.28718492 39.87514223 15.4375 43.8125 C15.47681641 44.93205078 15.51613281 46.05160156 15.55664062 47.20507812 C15.61948242 48.81479492 15.61948242 48.81479492 15.68359375 50.45703125 C15.72025146 51.44678955 15.75690918 52.43654785 15.79467773 53.45629883 C15.90790331 56.1218351 15.90790331 56.1218351 17 59 C18.65 59 20.3 59 22 59 C22 59.66 22 60.32 22 61 C14.74 61 7.48 61 0 61 C0 60.34 0 59.68 0 59 C1.98 58.34 3.96 57.68 6 57 C6 39.18 6 21.36 6 3 C4.02 2.34 2.04 1.68 0 1 C0 0.67 0 0.34 0 0 Z " fill="#CF464A" transform="translate(600,75)"/>
<path d="M0 0 C4.54154478 -0.08735463 9.08287232 -0.14051247 13.625 -0.1875 C15.55279297 -0.22520508 15.55279297 -0.22520508 17.51953125 -0.26367188 C19.38544922 -0.27817383 19.38544922 -0.27817383 21.2890625 -0.29296875 C23.00150146 -0.31653442 23.00150146 -0.31653442 24.74853516 -0.34057617 C29.70953267 0.17906578 32.94123427 1.85538839 36.3125 5.5 C39.42961267 10.11794469 39.64681492 14.59190863 39 20 C37.64842263 23.83436622 35.7094186 26.46361032 32.4375 28.9375 C30 30 30 30 27 30 C34.53592885 46.40675167 34.53592885 46.40675167 46.9375 58.125 C47.948125 58.41375 48.95875 58.7025 50 59 C50 59.66 50 60.32 50 61 C45.11162969 61.83570045 40.86074909 62.1032494 36 61 C31.90667502 57.1475474 29.63319929 52.59903456 27.125 47.625 C26.42277712 46.33850953 25.71577952 45.05461319 25.00390625 43.7734375 C20 34.63185547 20 34.63185547 20 32 C18.02 32 16.04 32 14 32 C14.1387078 35.93778511 14.28718492 39.87514223 14.4375 43.8125 C14.47681641 44.93205078 14.51613281 46.05160156 14.55664062 47.20507812 C14.61948242 48.81479492 14.61948242 48.81479492 14.68359375 50.45703125 C14.72025146 51.44678955 14.75690918 52.43654785 14.79467773 53.45629883 C14.90790331 56.1218351 14.90790331 56.1218351 16 59 C17.65 59 19.3 59 21 59 C21 59.66 21 60.32 21 61 C13.74 61 6.48 61 -1 61 C-1 60.34 -1 59.68 -1 59 C-0.030625 58.71125 0.93875 58.4225 1.9375 58.125 C5.10664203 57.35785318 5.10664203 57.35785318 6 55 C6.0902835 53.36582405 6.11755658 51.72797163 6.11352539 50.09130859 C6.11344986 49.07040131 6.11337433 48.04949402 6.11329651 46.99765015 C6.10813522 45.89240997 6.10297394 44.7871698 6.09765625 43.6484375 C6.09553383 41.95468491 6.09553383 41.95468491 6.09336853 40.22671509 C6.08775744 36.60945012 6.07520303 32.99224636 6.0625 29.375 C6.05748643 26.92708423 6.05292328 24.47916748 6.04882812 22.03125 C6.0377844 16.02081234 6.02103544 10.01041054 6 4 C4.02 3.01 2.04 2.02 0 1 C0 0.67 0 0.34 0 0 Z " fill="#CD4146" transform="translate(432,75)"/>
<path d="M0 0 C2 1 2 1 2.9296875 3.37109375 C3.24164063 4.38300781 3.55359375 5.39492187 3.875 6.4375 C5.12485237 10.35833317 6.42907453 14.19638125 8 18 C9.38341629 21.38404908 10.61777778 24.77387914 11.75 28.25 C13.77182005 34.41250751 15.9331853 40.52133664 18.125 46.625 C18.47401367 47.61016602 18.82302734 48.59533203 19.18261719 49.61035156 C19.68390137 50.99818848 19.68390137 50.99818848 20.1953125 52.4140625 C20.64414795 53.66630615 20.64414795 53.66630615 21.10205078 54.94384766 C21.92424296 57.16758583 21.92424296 57.16758583 24 59 C26.06874034 59.6425235 26.06874034 59.6425235 28 60 C28 60.99 28 61.98 28 63 C21.4 63 14.8 63 8 63 C8 62.34 8 61.68 8 61 C9.32 60.34 10.64 59.68 12 59 C12.64112653 52.909298 10.37369484 48.48916932 8 43 C1.4 42.67 -5.2 42.34 -12 42 C-12.33 44.31 -12.66 46.62 -13 49 C-13.350625 49.680625 -13.70125 50.36125 -14.0625 51.0625 C-15.3589057 53.74173845 -15.13326354 56.06820212 -15 59 C-13.35 59.66 -11.7 60.32 -10 61 C-10 61.66 -10 62.32 -10 63 C-15.28 63 -20.56 63 -26 63 C-25 60 -25 60 -23.08203125 58.15625 C-20.69514375 55.68427646 -19.8531781 53.72151038 -18.6875 50.5 C-18.26855469 49.35402344 -17.84960938 48.20804688 -17.41796875 47.02734375 C-16.94374032 45.68545041 -16.47120754 44.34295711 -16 43 C-15.72752441 42.22930176 -15.45504883 41.45860352 -15.17431641 40.66455078 C-12.84789024 34.07799487 -10.5555023 27.47968146 -8.26416016 20.88085938 C-5.78748613 13.76817777 -3.1794303 6.82988731 0 0 Z " fill="#CE4448" transform="translate(286,73)"/>
<path d="M0 0 C0.99 0.33 1.98 0.66 3 1 C3.84594727 2.73461914 3.84594727 2.73461914 4.50390625 4.97265625 C4.87539795 6.1949292 4.87539795 6.1949292 5.25439453 7.44189453 C5.50044434 8.28606934 5.74649414 9.13024414 6 10 C6.48594038 11.56192812 6.97419057 13.12313966 7.46484375 14.68359375 C7.70549561 15.460979 7.94614746 16.23836426 8.1940918 17.03930664 C10.27313698 23.74619035 12.40335758 30.34344191 15.140625 36.81640625 C16.07116958 39.18083542 16.75856873 41.55207558 17.4375 44 C20.00511819 53.3728699 20.00511819 53.3728699 26.16015625 60.28125 C26.76730469 60.5184375 27.37445313 60.755625 28 61 C28 61.66 28 62.32 28 63 C21.4 63 14.8 63 8 63 C8 62.34 8 61.68 8 61 C9.32 60.34 10.64 59.68 12 59 C12.3642434 53.17210564 11.19770614 49.40269426 9 44 C9 43.34 9 42.68 9 42 C-0.9 42.495 -0.9 42.495 -11 43 C-11.99 45.5678125 -11.99 45.5678125 -13 48.1875 C-13.37125 49.15042969 -13.7425 50.11335938 -14.125 51.10546875 C-14.97636772 53.92182358 -15.17072647 56.08164439 -15 59 C-13.35 59.66 -11.7 60.32 -10 61 C-10 61.66 -10 62.32 -10 63 C-15.28 63 -20.56 63 -26 63 C-25.67 62.01 -25.34 61.02 -25 60 C-23.515 59.505 -23.515 59.505 -22 59 C-19.12449559 54.0577268 -17.30566101 49.19224423 -15.80859375 43.6875 C-14.93271592 40.77636983 -13.88194025 37.96773628 -12.80053711 35.12792969 C-11.49175986 31.64903292 -10.28483042 28.13498363 -9.0625 24.625 C-7.10565543 19.03583865 -5.06067759 13.50727661 -2.8125 8.02734375 C-1.7552065 5.38919315 -0.85564345 2.70953759 0 0 Z " fill="#CD4146" transform="translate(401,73)"/>
<path d="M0 0 C5.1949488 -1.4590069 9.98207661 -2.24674516 15 0 C20.59895826 5.20921042 24.26051553 12.31542474 28.10644531 18.84619141 C30.55943542 22.93176724 33.19968451 26.87375588 35.87060547 30.8190918 C38.60545055 34.86256639 41.29865978 38.93406524 44 43 C44 29.8 44 16.6 44 3 C42.02 2.34 40.04 1.68 38 1 C38 0.67 38 0.34 38 0 C43.94 0 49.88 0 56 0 C54 1 52 2 50 3 C49.67 22.47 49.34 41.94 49 62 C48.34 62 47.68 62 47 62 C45.84936523 60.65258789 45.84936523 60.65258789 44.55859375 58.72265625 C44.06528564 57.99304688 43.57197754 57.2634375 43.0637207 56.51171875 C42.52706787 55.70347656 41.99041504 54.89523438 41.4375 54.0625 C40.27353042 52.33457282 39.1094626 50.60671181 37.9453125 48.87890625 C37.31657227 47.94062988 36.68783203 47.00235352 36.04003906 46.03564453 C33.84857162 42.77466964 31.64176199 39.52435216 29.4296875 36.27734375 C29.04589432 35.71394791 28.66210114 35.15055206 28.26667786 34.57008362 C27.49636288 33.43942224 26.72600285 32.30879155 25.95559692 31.17819214 C24.12088743 28.4846366 22.28882532 25.78928924 20.45703125 23.09375 C19.83803955 22.18302734 19.21904785 21.27230469 18.58129883 20.33398438 C17.38008976 18.56100943 16.18793206 16.78189809 15 15 C15 28.86 15 42.72 15 57 C16.98 57.66 18.96 58.32 21 59 C21 59.66 21 60.32 21 61 C15.06 61 9.12 61 3 61 C3 60.34 3 59.68 3 59 C3.804375 58.690625 4.60875 58.38125 5.4375 58.0625 C7.89080405 57.23664655 7.89080405 57.23664655 9 56 C9.12446728 54.45681618 9.18061987 52.90804723 9.20874023 51.36010742 C9.22803085 50.37205612 9.24732147 49.38400482 9.26719666 48.36601257 C9.32468554 43.8380369 9.37421645 39.31022522 9.4050293 34.78198242 C9.42662924 32.39088517 9.46075514 29.99986739 9.50756836 27.60913086 C9.57434895 24.17004925 9.60199382 20.73260606 9.62109375 17.29296875 C9.64892441 16.22306198 9.67675507 15.15315521 9.70542908 14.05082703 C9.6976132 11.24081242 9.63695098 8.73707875 9 6 C6.3062757 3.29629648 6.3062757 3.29629648 3 2 C2.01 1.34 1.02 0.68 0 0 Z " fill="#D04B4F" transform="translate(649,75)"/>
<path d="M0 0 C0 -1.32 0 -2.64 0 -4 C0.66 -4 1.32 -4 2 -4 C2.74507544 2.37305598 3.10349817 8.58311325 3 15 C0.47530701 13.7376535 0.34341224 12.80129523 -0.75 10.25 C-2.76025898 6.21496753 -4.70434892 2.79741254 -9 1 C-14.04330021 0.21620048 -19.2388604 -0.15533288 -24.03515625 1.8515625 C-28.93539892 5.53614395 -31.89379846 12.07242947 -33 18 C-33.80032276 29.53251981 -33.60930822 41.71011294 -26.0625 51.1875 C-21.55556407 55.7168585 -17.46745691 56.22206016 -11.28125 56.265625 C-8.60534918 55.95404751 -6.47694435 55.03325723 -4 54 C-4.10950024 50.0410768 -4.24021668 46.08313674 -4.375 42.125 C-4.4059375 40.99707031 -4.436875 39.86914062 -4.46875 38.70703125 C-4.52675781 37.09248047 -4.52675781 37.09248047 -4.5859375 35.4453125 C-4.6173584 34.45031738 -4.6487793 33.45532227 -4.68115234 32.43017578 C-4.77247083 29.82145483 -4.77247083 29.82145483 -7 28 C-9.06874034 27.3574765 -9.06874034 27.3574765 -11 27 C-11 26.34 -11 25.68 -11 25 C-4.4 25 2.2 25 9 25 C9 25.66 9 26.32 9 27 C8.360625 27.12375 7.72125 27.2475 7.0625 27.375 C6.381875 27.58125 5.70125 27.7875 5 28 C3.68483051 30.63033898 3.90672298 32.58163511 3.9296875 35.5234375 C3.919375 36.626875 3.9090625 37.7303125 3.8984375 38.8671875 C3.88286496 41.19787774 3.89052256 43.52884362 3.921875 45.859375 C3.78740459 54.10049035 3.78740459 54.10049035 1.55957031 56.64550781 C-5.69922733 61.0007864 -15.69077342 61.1806637 -23.7578125 59.38671875 C-31.8254195 56.5864943 -36.44892659 51.22997441 -40.375 43.8125 C-44.17282473 35.96916632 -44.29234558 26.04860236 -42.1640625 17.734375 C-38.97809398 9.39526276 -34.00814478 2.03693658 -26.1875 -2.5625 C-17.19201197 -6.37504083 -8.5388005 -3.69959635 0 0 Z " fill="#CE4448" transform="translate(249,77)"/>
<path d="M0 0 C12.87 0 25.74 0 39 0 C39 4.29 39 8.58 39 13 C37 10 37 10 36 7.375 C35.23952738 4.84860062 35.23952738 4.84860062 33 4 C31.5534758 3.84932786 30.1012066 3.75138964 28.6484375 3.68359375 C27.88192871 3.64548584 27.11541992 3.60737793 26.32568359 3.56811523 C25.35195801 3.52501221 24.37823242 3.48190918 23.375 3.4375 C20.28125 3.293125 17.1875 3.14875 14 3 C14 10.92 14 18.84 14 27 C17.6196875 26.814375 17.6196875 26.814375 21.3125 26.625 C22.06829346 26.59100098 22.82408691 26.55700195 23.6027832 26.52197266 C27.21109834 26.30838282 28.93053457 26.04631029 32 24 C32.73343428 20.93443402 32.73343428 20.93443402 33 18 C33.66 18 34.32 18 35 18 C35 24.93 35 31.86 35 39 C34.34 39 33.68 39 33 39 C32.71125 37.865625 32.4225 36.73125 32.125 35.5625 C31.75375 34.386875 31.3825 33.21125 31 32 C27.95887002 30.47943501 24.71802203 30.6258839 21.375 30.4375 C18.94125 30.293125 16.5075 30.14875 14 30 C14.33 38.58 14.66 47.16 15 56 C18.0525 56.0825 21.105 56.165 24.25 56.25 C25.20551758 56.28641602 26.16103516 56.32283203 27.14550781 56.36035156 C32.13940326 56.47178181 32.13940326 56.47178181 36.46875 54.21875 C37.82285957 52.25667286 39.11999776 50.34857559 40.25 48.25 C40.8275 47.1775 41.405 46.105 42 45 C42.66 45 43.32 45 44 45 C43.54548816 46.73017508 43.08621143 48.45909877 42.625 50.1875 C42.24214844 51.63189453 42.24214844 51.63189453 41.8515625 53.10546875 C41 56 41 56 39 61 C21.18 61 3.36 61 -15 61 C-15 60.67 -15 60.34 -15 60 C-14.07058594 59.95101562 -13.14117188 59.90203125 -12.18359375 59.8515625 C-10.94738281 59.77679688 -9.71117187 59.70203125 -8.4375 59.625 C-6.61025391 59.52058594 -6.61025391 59.52058594 -4.74609375 59.4140625 C-0.39797557 59.03926431 -0.39797557 59.03926431 6 57 C6 39.18 6 21.36 6 3 C4.02 2.34 2.04 1.68 0 1 C0 0.67 0 0.34 0 0 Z " fill="#CF474B" transform="translate(887,75)"/>
<path d="M0 0 C3.42815219 1.14108494 6.717474 2.49326675 10 4 C10.33 2.68 10.66 1.36 11 0 C11.66 0 12.32 0 13 0 C13 6.93 13 13.86 13 21 C12.34 21 11.68 21 11 21 C10.84144531 20.33613281 10.68289063 19.67226562 10.51953125 18.98828125 C9.0376942 13.38022389 7.75312617 9.68367278 3 6 C-0.62328619 4.79223794 -3.19611527 4.59959108 -7 5 C-9.90480195 7.53239145 -10.85407469 9.14268883 -11.5 12.9375 C-10.7962692 17.24785112 -8.90022189 20.4660606 -5.45605469 23.24633789 C-3.70898427 24.41147011 -1.93589596 25.49941564 -0.125 26.5625 C13.5011325 34.75283126 13.5011325 34.75283126 16 41 C16.82163432 46.86302018 16.38222103 52.06797214 13.3828125 57.23828125 C10.26381188 61.21192328 6.60921523 63.55660395 1.609375 64.40625 C-4.62527319 64.64151974 -10.16965215 63.08403923 -16 61 C-16.33 61.99 -16.66 62.98 -17 64 C-17 57.07 -17 50.14 -17 43 C-15.16120196 45.75819706 -14.34248132 47.83823494 -13.3125 50.9375 C-11.9319456 54.45303814 -10.88387214 56.63226803 -7.625 58.625 C-3.95423708 60.01735835 -1.85512285 60.67045615 2 60 C4.69990662 58.20006226 6.5418865 56.916227 8 54 C8.4978527 49.93176108 8.4978527 49.93176108 8 46 C4.93884517 42.38121545 1.40182621 39.769961 -2.47045898 37.10717773 C-16.84273529 27.19089574 -16.84273529 27.19089574 -18.48046875 18.4296875 C-18.79028222 12.81955165 -17.79901384 9.29888409 -14 5 C-9.65858915 0.46125229 -6.19747781 -1.22432691 0 0 Z " fill="#CE454A" transform="translate(955,73)"/>
<path d="M0 0 C7.26 0 14.52 0 22 0 C22 0.33 22 0.66 22 1 C21.030625 1.268125 20.06125 1.53625 19.0625 1.8125 C17.5465625 2.4003125 17.5465625 2.4003125 16 3 C14.78372693 6.6488192 14.83774074 10.01665249 14.83203125 13.81640625 C14.82870285 14.58750229 14.82537445 15.35859833 14.82194519 16.15306091 C14.81688196 17.78798833 14.81453668 19.42292608 14.81469727 21.05786133 C14.8125294 23.52898872 14.79441959 25.99965581 14.77539062 28.47070312 C14.35716644 42.37719508 14.35716644 42.37719508 19 55.125 C23.33775065 57.83609416 27.01667467 57.73472104 32 57 C36.22467804 55.46375344 38.69648049 53.8796118 41 50 C41.93512434 47.19462697 42.12182907 45.51834636 42.11352539 42.62036133 C42.11344986 41.73967484 42.11337433 40.85898834 42.11329651 39.95161438 C42.10813522 39.00465195 42.10297394 38.05768951 42.09765625 37.08203125 C42.0962413 36.10965012 42.09482635 35.13726898 42.09336853 34.13542175 C42.08776817 31.02774996 42.07521562 27.92015004 42.0625 24.8125 C42.05748505 22.70638125 42.05292213 20.60026137 42.04882812 18.49414062 C42.03779862 13.32939936 42.02053375 8.16471187 42 3 C40.02 2.34 38.04 1.68 36 1 C36 0.67 36 0.34 36 0 C41.94 0 47.88 0 54 0 C52.02 0.99 52.02 0.99 50 2 C47.6291246 4.3708754 47.75013574 4.83071084 47.74462891 8.04736328 C47.73419052 9.29974289 47.73419052 9.29974289 47.72354126 10.5774231 C47.72453827 11.4825766 47.72553528 12.3877301 47.7265625 13.3203125 C47.7062589 15.23698485 47.68540786 17.15365147 47.6640625 19.0703125 C47.64153567 22.0918459 47.62502306 25.11315235 47.61914062 28.13476562 C47.60956599 31.05119965 47.57571181 33.96660997 47.5390625 36.8828125 C47.54410797 37.77582062 47.54915344 38.66882874 47.55435181 39.58889771 C47.4384605 47.04949947 45.36495593 52.13715861 40.625 57.875 C34.76427785 62.61939412 28.26373583 62.67569636 21 62 C17.22544906 61.11187037 14.59272089 59.55979195 11.75 56.875 C7.46853975 49.84117244 6.5462153 42.82136483 6.48828125 34.71484375 C6.47033005 33.77314835 6.45237885 32.83145294 6.43388367 31.86122131 C6.38018901 28.88669158 6.34601704 25.91231847 6.3125 22.9375 C6.27929081 20.90687943 6.24479787 18.87627943 6.20898438 16.84570312 C6.12448644 11.89724922 6.05748186 6.94883846 6 2 C3.03 1.505 3.03 1.505 0 1 C0 0.67 0 0.34 0 0 Z " fill="#CF494D" transform="translate(779,75)"/>
<path d="M0 0 C7.26 0 14.52 0 22 0 C22 0.33 22 0.66 22 1 C21.030625 1.268125 20.06125 1.53625 19.0625 1.8125 C17.5465625 2.4003125 17.5465625 2.4003125 16 3 C14.76386387 6.70840838 14.81841295 10.17100738 14.796875 14.03515625 C14.79117493 14.82844833 14.78547485 15.62174042 14.77960205 16.43907166 C14.77015546 18.12107005 14.76361942 19.80308692 14.75976562 21.48510742 C14.7501276 24.02882435 14.71913035 26.57170937 14.6875 29.11523438 C14.63315609 37.54341522 14.74720006 45.07796134 18 53 C18.33 53.99 18.66 54.98 19 56 C24.47459798 57.82486599 30.0275167 57.71726665 35.4375 55.75 C39.08737947 53.25739939 40.60991427 51.1702572 42 47 C42.08630926 45.54218278 42.11770981 44.08072526 42.11352539 42.62036133 C42.11344986 41.73967484 42.11337433 40.85898834 42.11329651 39.95161438 C42.10813522 39.00465195 42.10297394 38.05768951 42.09765625 37.08203125 C42.0962413 36.10965012 42.09482635 35.13726898 42.09336853 34.13542175 C42.08776817 31.02774996 42.07521562 27.92015004 42.0625 24.8125 C42.05748505 22.70638125 42.05292213 20.60026137 42.04882812 18.49414062 C42.03779862 13.32939936 42.02053375 8.16471187 42 3 C40.02 2.34 38.04 1.68 36 1 C36 0.67 36 0.34 36 0 C41.94 0 47.88 0 54 0 C52.02 0.99 52.02 0.99 50 2 C46.9240742 5.0759258 47.70169834 8.71999651 47.69140625 12.84765625 C47.66622301 14.66862267 47.64082537 16.48958614 47.61523438 18.31054688 C47.58662292 21.17829456 47.56260885 24.04599019 47.54370117 26.91381836 C47.52186825 29.68372051 47.48239114 32.4529805 47.44140625 35.22265625 C47.44129044 36.06675552 47.44117462 36.9108548 47.4410553 37.78053284 C47.32543287 44.83393747 46.16934972 51.22805314 41.75 56.875 C35.08254043 62.02712785 29.27554719 62.84344573 21 62 C14.78257922 60.47112604 12.44744743 57.44235676 9.1640625 52.25390625 C7.32531419 48.69364526 6.87470149 45.48515997 6.79467773 41.50683594 C6.77473251 40.62622498 6.75478729 39.74561401 6.73423767 38.83831787 C6.71752518 37.89651672 6.70081268 36.95471558 6.68359375 35.984375 C6.66281265 35.01340881 6.64203156 34.04244263 6.62062073 33.04205322 C6.55531138 29.94477315 6.49632677 26.84740932 6.4375 23.75 C6.39429708 21.64842889 6.35068222 19.5468662 6.30664062 17.4453125 C6.19964902 12.29696052 6.0983291 7.14852442 6 2 C3.03 1.505 3.03 1.505 0 1 C0 0.67 0 0.34 0 0 Z " fill="#CD4045" transform="translate(544,75)"/>
<path d="M0 0 C13.86 0 27.72 0 42 0 C42 4.62 42 9.24 42 14 C41.34 12.68 40.68 11.36 40 10 C39.01 8.35 38.02 6.7 37 5 C33.04 4.67 29.08 4.34 25 4 C25.495 30.235 25.495 30.235 26 57 C27.98 57.66 29.96 58.32 32 59 C32 59.66 32 60.32 32 61 C24.74 61 17.48 61 10 61 C10 60.34 10 59.68 10 59 C11.98 58.34 13.96 57.68 16 57 C16.33 39.51 16.66 22.02 17 4 C11.06 4.495 11.06 4.495 5 5 C3.02 9.455 3.02 9.455 1 14 C0.67 14 0.34 14 0 14 C0 9.38 0 4.76 0 0 Z " fill="#CF494E" transform="translate(734,75)"/>
<path d="M0 0 C12.54 0 25.08 0 38 0 C38 4.29 38 8.58 38 13 C36 12 36 12 34.5625 8.5 C34.046875 7.345 33.53125 6.19 33 5 C29.28574757 3.76191586 25.68709247 3.64419129 21.8125 3.4375 C19.234375 3.293125 16.65625 3.14875 14 3 C14 10.92 14 18.84 14 27 C20.435 26.505 20.435 26.505 27 26 C27.99 23.69 28.98 21.38 30 19 C30.66 19 31.32 19 32 19 C32 25.6 32 32.2 32 39 C31.34 39 30.68 39 30 39 C30 37.02 30 35.04 30 33 C26.33552568 31.35199144 23.18796534 30.66419027 19.1875 30.375 C18.21167969 30.30023438 17.23585938 30.22546875 16.23046875 30.1484375 C15.49441406 30.09945312 14.75835938 30.05046875 14 30 C14.10946343 34.29221231 14.24018895 38.5835149 14.375 42.875 C14.4059375 44.09832031 14.436875 45.32164063 14.46875 46.58203125 C14.50742187 47.74863281 14.54609375 48.91523437 14.5859375 50.1171875 C14.6173584 51.19597168 14.6487793 52.27475586 14.68115234 53.38623047 C14.74676322 56.15761654 14.74676322 56.15761654 17 58 C19.57061311 58.64767793 19.57061311 58.64767793 22 59 C22 59.66 22 60.32 22 61 C14.74 61 7.48 61 0 61 C0 60.34 0 59.68 0 59 C1.98 58.34 3.96 57.68 6 57 C6.05057965 49.48863592 6.08568257 41.97731551 6.10986328 34.46582031 C6.11994038 31.90883747 6.13360226 29.35186621 6.15087891 26.79492188 C6.17505217 23.12627308 6.18646585 19.45777621 6.1953125 15.7890625 C6.21079636 14.0655809 6.21079636 14.0655809 6.22659302 12.30728149 C6.22674408 11.2463327 6.22689514 10.18538391 6.22705078 9.09228516 C6.23371262 7.68663803 6.23371262 7.68663803 6.24050903 6.25259399 C6.2169323 3.79823929 6.2169323 3.79823929 4 2 C2.68 1.34 1.36 0.68 0 0 Z " fill="#CE4247" transform="translate(502,75)"/>
<path d="M0 0 C7.26 0 14.52 0 22 0 C20 1 18 2 16 3 C15.98541748 4.25022949 15.97083496 5.50045898 15.95581055 6.78857422 C15.89744636 11.46674933 15.82021821 16.14446214 15.73754883 20.82226562 C15.70447773 22.83944139 15.67639148 24.85670574 15.65356445 26.87402344 C15.61968855 29.78879227 15.567359 32.70276225 15.51171875 35.6171875 C15.50213387 36.95062698 15.50213387 36.95062698 15.49235535 38.31100464 C15.31448238 46.04031142 14.4754479 53.98333602 8.75 59.625 C6.05833 61.62241262 4.74644487 62.04727299 1.3125 62.6875 C-2 62 -2 62 -4.4375 59.8125 C-6.09100373 56.83619328 -6.46357586 55.3377462 -6 52 C-5 51 -5 51 -2.625 50.625 C0 51 0 51 1.8125 53.375 C3 56 3 56 3 58 C4.485 57.505 4.485 57.505 6 57 C6 39.18 6 21.36 6 3 C4.02 2.34 2.04 1.68 0 1 C0 0.67 0 0.34 0 0 Z " fill="#CC3D42" transform="translate(352,75)"/>
<path d="M0 0 C7.26 0 14.52 0 22 0 C18 2 18 2 16 2 C15.98541748 3.31605225 15.97083496 4.63210449 15.95581055 5.98803711 C15.89753701 10.90285477 15.82030677 15.81722815 15.73754883 20.73168945 C15.70443565 22.85270947 15.676362 24.97381473 15.65356445 27.0949707 C15.61976731 30.15612884 15.56743951 33.21651538 15.51171875 36.27734375 C15.50213387 37.6841465 15.50213387 37.6841465 15.49235535 39.11936951 C15.3284912 46.57204086 14.38593873 53.20670587 9.4375 59 C6.45938207 61.44358394 5.49176127 61.94535986 1.625 62.375 C-2 62 -2 62 -4.4375 59.8125 C-6.09100373 56.83619328 -6.46357586 55.3377462 -6 52 C-5 51 -5 51 -2.625 50.625 C-1.75875 50.74875 -0.8925 50.8725 0 51 C1.75 53.375 1.75 53.375 3 56 C3.33 56.66 3.66 57.32 4 58 C4.66 58 5.32 58 6 58 C6.99293809 55.02118573 7.12119785 53.08512761 7.11352539 49.9777832 C7.11341209 48.44653557 7.11341209 48.44653557 7.11329651 46.88435364 C7.10813522 45.78427475 7.10297394 44.68419586 7.09765625 43.55078125 C7.0962413 42.4230278 7.09482635 41.29527435 7.09336853 40.13334656 C7.0877647 36.52637088 7.07521153 32.91945696 7.0625 29.3125 C7.05748549 26.86914152 7.0529225 24.42578207 7.04882812 21.98242188 C7.03779403 15.98826013 7.02105215 9.99413448 7 4 C4.69 3.01 2.38 2.02 0 1 C0 0.67 0 0.34 0 0 Z " fill="#CD3D42" transform="translate(322,75)"/>
<path d="M0 0 C1.32 0 2.64 0 4 0 C4.33 3.3 4.66 6.6 5 10 C5.36609375 9.278125 5.7321875 8.55625 6.109375 7.8125 C6.65078125 6.884375 7.1921875 5.95625 7.75 5 C8.26046875 4.071875 8.7709375 3.14375 9.296875 2.1875 C12 0 12 0 24 0 C24 8.58 24 17.16 24 26 C22.35 25.67 20.7 25.34 19 25 C18.67 25.33 18.34 25.66 18 26 C16.00041636 26.04080783 13.99954746 26.04254356 12 26 C11.3291288 24.3767313 10.66342971 22.75132422 10 21.125 C9.62875 20.22007812 9.2575 19.31515625 8.875 18.3828125 C8 16 8 16 8 14 C7.34 14 6.68 14 6 14 C5.34 17.63 4.68 21.26 4 25 C2.68 25 1.36 25 0 25 C0 16.75 0 8.5 0 0 Z " fill="#2A8DC7" transform="translate(381,167)"/>
<path d="M0 0 C6.93 0 13.86 0 21 0 C19.02 0.99 19.02 0.99 17 2 C14.45726278 4.54273722 14.7473512 5.44439439 14.74121094 8.96875 C14.73490662 10.00322266 14.72860229 11.03769531 14.72210693 12.10351562 C14.7261554 13.22435547 14.73020386 14.34519531 14.734375 15.5 C14.73150482 17.21993164 14.73150482 17.21993164 14.72857666 18.97460938 C14.72721378 21.40234598 14.73091733 23.83008984 14.73925781 26.2578125 C14.74995562 29.98454073 14.73936569 33.71078686 14.7265625 37.4375 C14.72788408 39.79166774 14.73044643 42.14583517 14.734375 44.5 C14.73032654 45.62083984 14.72627808 46.74167969 14.72210693 47.89648438 C14.72841125 48.93095703 14.73471558 49.96542969 14.74121094 51.03125 C14.74280212 51.94455078 14.74439331 52.85785156 14.74603271 53.79882812 C14.79289983 56.20716627 14.79289983 56.20716627 17 58 C19.57061311 58.64767793 19.57061311 58.64767793 22 59 C22 59.66 22 60.32 22 61 C14.74 61 7.48 61 0 61 C0 60.34 0 59.68 0 59 C0.804375 58.690625 1.60875 58.38125 2.4375 58.0625 C4.89080405 57.23664655 4.89080405 57.23664655 6 56 C6.09340434 54.37325222 6.11745171 52.74245949 6.11352539 51.11303711 C6.11344986 50.07203354 6.11337433 49.03102997 6.11329651 47.95848083 C6.10813522 46.8262056 6.10297394 45.69393036 6.09765625 44.52734375 C6.09553383 42.79817467 6.09553383 42.79817467 6.09336853 41.03407288 C6.08775005 37.33518936 6.07519442 33.63636536 6.0625 29.9375 C6.05748738 27.43684983 6.05292406 24.93619871 6.04882812 22.43554688 C6.03777462 16.29034412 6.02101852 10.14517631 6 4 C4.02 3.01 2.04 2.02 0 1 C0 0.67 0 0.34 0 0 Z " fill="#CE3F43" transform="translate(708,75)"/>
<path d="M0 0 C3.48969743 2.88279353 5.79475067 5.041335 6.2734375 9.609375 C6.58135647 19.13117707 6.58135647 19.13117707 3.625 22.6875 C0.80915053 25.1681293 -0.1526404 25.88701872 -3.8125 26.375 C-8.08055764 25.87287557 -9.3679276 24.30889102 -12 21 C-13.61747493 16.10662647 -14.2099591 9.86146725 -12.17578125 5.05078125 C-8.82143017 -0.09920758 -5.99105762 -0.6092601 0 0 Z " fill="#E0EDF4" transform="translate(467,167)"/>
<path d="M0 0 C3.97245401 0.70936679 5.67231707 1.79731707 8.5 4.625 C9.90053506 7.42607012 9.7075504 9.81391681 9.75 12.9375 C9.77578125 14.06800781 9.8015625 15.19851562 9.828125 16.36328125 C9.46966225 19.92657168 8.67796356 21.80739181 6.5 24.625 C5.84 24.625 5.18 24.625 4.5 24.625 C4.5 25.285 4.5 25.945 4.5 26.625 C1.3125 26.9375 1.3125 26.9375 -2.5 26.625 C-6.1118492 23.64129849 -8.31777916 21.5096841 -8.7734375 16.796875 C-9.08171295 6.41036353 -9.08171295 6.41036353 -6.4375 2.8125 C-3.5 0.625 -3.5 0.625 0 0 Z " fill="#E3EEF5" transform="translate(824.5,166.375)"/>
<path d="M0 0 C3.97245401 0.70936679 5.67231707 1.79731707 8.5 4.625 C10.73185269 9.08870539 10.31142843 16.05862171 8.828125 20.75 C8 22.375 8 22.375 6.5 24.625 C5.84 24.625 5.18 24.625 4.5 24.625 C4.5 25.285 4.5 25.945 4.5 26.625 C-0.74555629 27.06212969 -0.74555629 27.06212969 -3.5 26.625 C-7.80981956 22.42568863 -8.70053981 19.25296633 -8.875 13.375 C-8.80178887 6.02948322 -8.80178887 6.02948322 -6.4375 2.8125 C-3.5 0.625 -3.5 0.625 0 0 Z " fill="#E3EEF5" transform="translate(692.5,166.375)"/>
<path d="M0 0 C10.6 0 10.6 0 14 3 C16.89550431 7.39317896 17.55878366 10.78468583 17 16 C15.40093249 20.15757553 13.85311765 22.7122114 10 25 C7 26 7 26 0 26 C0 17.42 0 8.84 0 0 Z " fill="#F9EFEB" transform="translate(446,78)"/>
<path d="M0 0 C10 0 10 0 13.0625 1.875 C16.2494682 5.37038448 16.18658592 7.64628091 16.25 12.3125 C16.27578125 13.44300781 16.3015625 14.57351562 16.328125 15.73828125 C15.9685426 19.31270151 15.14022123 21.14810326 13 24 C11 25 11 25 0 25 C0 16.75 0 8.5 0 0 Z " fill="#E3EFF5" transform="translate(428,167)"/>
<path d="M0 0 C10.75892857 0 10.75892857 0 14.7421875 3.890625 C17.36261059 8.28512335 16.84343288 13.11344443 16 18 C14.29134278 21.67044885 13.13679827 23.3240659 9.6875 25.375 C7 26 7 26 0 26 C0 17.42 0 8.84 0 0 Z " fill="#F9F0ED" transform="translate(850,78)"/>
<path d="M0 0 C10.75892857 0 10.75892857 0 14.7421875 3.890625 C17.36261059 8.28512335 16.84343288 13.11344443 16 18 C14.29134278 21.67044885 13.13679827 23.3240659 9.6875 25.375 C7 26 7 26 0 26 C0 17.42 0 8.84 0 0 Z " fill="#F9F1ED" transform="translate(615,78)"/>
<path d="M0 0 C4.29 0 8.58 0 13 0 C16 3 16 3 16.375 6.9375 C16.25787287 10.47083523 15.56417383 12.43582617 13 15 C13.99 16.6396875 13.99 16.6396875 15 18.3125 C16.58464929 20.93707538 17 21.8256378 17 25 C14.75 25 14.75 25 12 24 C10.80256746 21.99419242 9.93351614 19.98971906 9.08984375 17.8125 C7.98785022 15.49657144 7.98785022 15.49657144 4 15 C4 18.63 4 22.26 4 26 C2.68 26 1.36 26 0 26 C0 17.42 0 8.84 0 0 Z " fill="#DBEAF3" transform="translate(536,167)"/>
<path d="M0 0 C12 0 12 0 16 3 C16.69234745 5.70397116 16.49620256 8.26233071 16 11 C14.5 13 14.5 13 13 14 C13.433125 14.86625 13.433125 14.86625 13.875 15.75 C14.24625 16.4925 14.6175 17.235 15 18 C15.37125 18.680625 15.7425 19.36125 16.125 20.0625 C17 22 17 22 17 25 C14.8125 25 14.8125 25 12 24 C10.53420777 22.01712072 9.36883067 19.98840663 8.2109375 17.8125 C7.05186812 15.67664734 7.05186812 15.67664734 4 15 C4 18.63 4 22.26 4 26 C2.68 26 1.36 26 0 26 C0 17.42 0 8.84 0 0 Z " fill="#DDECF3" transform="translate(619,167)"/>
<path d="M0 0 C12.44659001 -0.36970069 12.44659001 -0.36970069 14.89453125 1.265625 C16.80639807 4.26516164 16.53272949 7.60555694 16 11 C14.5 13.5 14.5 13.5 13 15 C13.99 16.6396875 13.99 16.6396875 15 18.3125 C16.58464929 20.93707538 17 21.8256378 17 25 C14.75 25 14.75 25 12 24 C10.80256746 21.99419242 9.93351614 19.98971906 9.08984375 17.8125 C7.98785022 15.49657144 7.98785022 15.49657144 4 15 C4 18.3 4 21.6 4 25 C2.68 25 1.36 25 0 25 C0 16.75 0 8.5 0 0 Z " fill="#DAEAF3" transform="translate(837,167)"/>
<path d="M0 0 C12 0 12 0 16 3 C16.75 9.75 16.75 9.75 14.5 13.5 C14.005 13.995 13.51 14.49 13 15 C13.99 16.6396875 13.99 16.6396875 15 18.3125 C16.58464929 20.93707538 17 21.8256378 17 25 C14.75 25 14.75 25 12 24 C10.80256746 21.99419242 9.93351614 19.98971906 9.08984375 17.8125 C7.98785022 15.49657144 7.98785022 15.49657144 4 15 C4 18.3 4 21.6 4 25 C2.68 25 1.36 25 0 25 C0 16.75 0 8.5 0 0 Z " fill="#DBEAF3" transform="translate(741,167)"/>
<path d="M0 0 C2.475 0.495 2.475 0.495 5 1 C7.53306366 5.13752046 9.12418083 9.50675873 11 14 C11.33 9.38 11.66 4.76 12 0 C13.32 0 14.64 0 16 0 C16 8.58 16 17.16 16 26 C14.35 25.67 12.7 25.34 11 25 C8.46693634 20.86247954 6.87581917 16.49324127 5 12 C4.67 16.62 4.34 21.24 4 26 C2.68 26 1.36 26 0 26 C0 17.42 0 8.84 0 0 Z " fill="#D8E9F2" transform="translate(408,167)"/>
<path d="M0 0 C2.475 0.495 2.475 0.495 5 1 C7.53306366 5.13752046 9.12418083 9.50675873 11 14 C11.33 9.38 11.66 4.76 12 0 C13.32 0 14.64 0 16 0 C16 8.25 16 16.5 16 25 C14.35 24.67 12.7 24.34 11 24 C8.48757573 20.2013889 6.88566296 16.16599956 5 12 C4.67 16.62 4.34 21.24 4 26 C2.68 26 1.36 26 0 26 C0 17.42 0 8.84 0 0 Z " fill="#DAEAF3" transform="translate(705,167)"/>
<path d="M0 0 C2.475 0.495 2.475 0.495 5 1 C7.53306366 5.13752046 9.12418083 9.50675873 11 14 C11.33 9.38 11.66 4.76 12 0 C13.32 0 14.64 0 16 0 C16 8.25 16 16.5 16 25 C14.35 25 12.7 25 11 25 C9.02 20.71 7.04 16.42 5 12 C4.67 16.29 4.34 20.58 4 25 C2.68 25 1.36 25 0 25 C0 16.75 0 8.5 0 0 Z " fill="#DBEBF3" transform="translate(556,167)"/>
<path d="M0 0 C1.32 0 2.64 0 4 0 C11 18.69035533 11 18.69035533 11 25 C9.68 25 8.36 25 7 25 C6.67 23.35 6.34 21.7 6 20 C3.36 20 0.72 20 -2 20 C-2.99 22.475 -2.99 22.475 -4 25 C-4.99 25 -5.98 25 -7 25 C-6.42958936 19.23755617 -5.29316462 14.05983041 -3.5 8.5625 C-3.27441406 7.84384766 -3.04882812 7.12519531 -2.81640625 6.38476562 C-1.14358313 1.14358313 -1.14358313 1.14358313 0 0 Z " fill="#DDECF3" transform="translate(767,167)"/>
<path d="M0 0 C1.67542976 0.28604898 3.34385343 0.61781233 5 1 C5.82134989 3.49738858 6.63215748 5.99744805 7.4375 8.5 C7.66759766 9.19609375 7.89769531 9.8921875 8.13476562 10.609375 C9.67049584 15.41687828 10.5077359 19.97551131 11 25 C9.68 25 8.36 25 7 25 C6.67 23.68 6.34 22.36 6 21 C3.36 21 0.72 21 -2 21 C-2.33 22.32 -2.66 23.64 -3 25 C-4.32 25 -5.64 25 -7 25 C-6.42958936 19.23755617 -5.29316462 14.05983041 -3.5 8.5625 C-3.27441406 7.84384766 -3.04882812 7.12519531 -2.81640625 6.38476562 C-1.14358313 1.14358313 -1.14358313 1.14358313 0 0 Z " fill="#DDEBF3" transform="translate(327,167)"/>
<path d="M0 0 C4.95 0 9.9 0 15 0 C15 1.65 15 3.3 15 5 C11.37 5 7.74 5 4 5 C4 6.65 4 8.3 4 10 C7.3 10 10.6 10 14 10 C14 11.32 14 12.64 14 14 C10.7 14 7.4 14 4 14 C4 16.31 4 18.62 4 21 C7.63 21 11.26 21 15 21 C15 22.32 15 23.64 15 25 C10.05 25 5.1 25 0 25 C0 16.75 0 8.5 0 0 Z " fill="#DEECF4" transform="translate(639,167)"/>
<path d="M0 0 C1.32 0 2.64 0 4 0 C4.33 3.3 4.66 6.6 5 10 C5.44730469 9.278125 5.89460938 8.55625 6.35546875 7.8125 C7.26232422 6.4203125 7.26232422 6.4203125 8.1875 5 C8.77917969 4.071875 9.37085938 3.14375 9.98046875 2.1875 C12 0 12 0 14.73828125 -0.3125 C15.48464844 -0.209375 16.23101562 -0.10625 17 0 C15.85109585 2.58503435 14.69819007 4.34492563 12.8125 6.5 C10.75599966 8.73883525 10.75599966 8.73883525 11.2265625 10.8359375 C12.14063316 13.39348875 13.30221845 15.71933436 14.5625 18.125 C17 22.77903683 17 22.77903683 17 25 C15.35 25 13.7 25 12 25 C11.32880451 23.5437455 10.66318193 22.08492133 10 20.625 C9.62875 19.81289062 9.2575 19.00078125 8.875 18.1640625 C8 16 8 16 8 14 C7.34 14 6.68 14 6 14 C5.34 17.63 4.68 21.26 4 25 C2.68 25 1.36 25 0 25 C0 16.75 0 8.5 0 0 Z " fill="#E4EFF5" transform="translate(381,167)"/>
<path d="M0 0 C1.32 0 2.64 0 4 0 C4.33 6.6 4.66 13.2 5 20 C6.65 20 8.3 20 10 20 C10.33 13.4 10.66 6.8 11 0 C12.32 0 13.64 0 15 0 C15.14575327 3.39537852 15.23421542 6.78994902 15.3125 10.1875 C15.3753418 11.62706055 15.3753418 11.62706055 15.43945312 13.09570312 C15.56308029 20.24135323 15.56308029 20.24135323 12.671875 24.13671875 C10 26 10 26 6.9375 26.625 C4 26 4 26 1.83203125 24.13671875 C-0.85836725 19.53034349 -0.43257996 15.41560704 -0.25 10.1875 C-0.23195313 9.20845703 -0.21390625 8.22941406 -0.1953125 7.22070312 C-0.14832887 4.81279229 -0.08265694 2.40690665 0 0 Z " fill="#DEECF3" transform="translate(600,167)"/>
<path d="M0 0 C1.32 0 2.64 0 4 0 C4.33 6.6 4.66 13.2 5 20 C6.65 20 8.3 20 10 20 C10.33 13.4 10.66 6.8 11 0 C12.32 0 13.64 0 15 0 C15.14575327 3.39537852 15.23421542 6.78994902 15.3125 10.1875 C15.3753418 11.62706055 15.3753418 11.62706055 15.43945312 13.09570312 C15.56308029 20.24135323 15.56308029 20.24135323 12.671875 24.13671875 C10 26 10 26 6.9375 26.625 C4 26 4 26 1.83203125 24.13671875 C-0.85836725 19.53034349 -0.43257996 15.41560704 -0.25 10.1875 C-0.23195313 9.20845703 -0.21390625 8.22941406 -0.1953125 7.22070312 C-0.14832887 4.81279229 -0.08265694 2.40690665 0 0 Z " fill="#DFECF4" transform="translate(517,167)"/>
<path d="M0 0 C2 1 2 1 2.96484375 3.44140625 C3.28582031 4.47136719 3.60679687 5.50132813 3.9375 6.5625 C5.11741106 10.27457974 6.32321067 13.93804937 7.75 17.5625 C9 21 9 21 9 24 C3.39 24 -2.22 24 -8 24 C-5.93351251 15.73405005 -3.29398686 7.85875037 0 0 Z " fill="#F7E9E5" transform="translate(284,88)"/>
<path d="M0 0 C0.66 0 1.32 0 2 0 C2.25523437 0.90878906 2.25523437 0.90878906 2.515625 1.8359375 C4.10081125 7.31663465 5.95484884 12.54036401 8.23046875 17.7734375 C9 20 9 20 9 24 C3.39 24 -2.22 24 -8 24 C-6.40338255 18.52588301 -4.74929495 13.14685851 -2.6953125 7.828125 C-1.71326817 5.24612082 -0.85368925 2.62673614 0 0 Z " fill="#F7E9E5" transform="translate(399,88)"/>
<path d="M0 0 C5.94 0 11.88 0 18 0 C16.02 0.99 16.02 0.99 14 2 C11.65199864 4.34800136 11.7397146 4.80884017 11.68115234 7.99072266 C11.66128265 8.81142242 11.64141296 9.63212219 11.62094116 10.47769165 C11.60361435 11.80744522 11.60361435 11.80744522 11.5859375 13.1640625 C11.56657135 14.07127045 11.5472052 14.97847839 11.5272522 15.91317749 C11.46736784 18.81702204 11.42103584 21.72090604 11.375 24.625 C11.33682835 26.59116333 11.29777711 28.5573098 11.2578125 30.5234375 C11.16165909 35.3488217 11.077661 40.17428418 11 45 C9.68 45.66 8.36 46.32 7 47 C6.67 32.48 6.34 17.96 6 3 C4.02 2.34 2.04 1.68 0 1 C0 0.67 0 0.34 0 0 Z " fill="#D15155" transform="translate(580,75)"/>
<path d="M0 0 C2.875 2.3125 2.875 2.3125 5 5 C5 5.99 5 6.98 5 8 C2.5625 7.625 2.5625 7.625 0 7 C-0.33 6.34 -0.66 5.68 -1 5 C-3.47266765 5.34444881 -3.47266765 5.34444881 -6 6 C-7.17635297 8.35270593 -7.13359359 9.820752 -7.125 12.4375 C-7.12757813 13.21996094 -7.13015625 14.00242188 -7.1328125 14.80859375 C-7.08382548 17.17895347 -7.08382548 17.17895347 -6 20 C-3.58380177 20.25030977 -3.58380177 20.25030977 -1 20 C-0.34 19.01 0.32 18.02 1 17 C2.32 17 3.64 17 5 17 C4.71180351 20.45835793 4.21034962 21.78380733 1.75 24.3125 C-1 26 -1 26 -3.5 26.625 C-7.37601322 25.6559967 -8.75791813 23.17628264 -11 20 C-12.57353809 15.27938572 -13.15401836 9.73464066 -11.17578125 5.046875 C-8.07862847 0.3032804 -5.5669553 -0.65493592 0 0 Z " fill="#E1EDF4" transform="translate(792,167)"/>
<path d="M0 0 C2.375 1.1875 2.375 1.1875 4 3 C4.25 5.6875 4.25 5.6875 4 8 C2.0625 7.625 2.0625 7.625 0 7 C-0.33 6.34 -0.66 5.68 -1 5 C-4.29075996 5.37904208 -4.29075996 5.37904208 -7 7 C-7.09886353 8.62252492 -7.12971167 10.24947273 -7.125 11.875 C-7.12757813 12.75929687 -7.13015625 13.64359375 -7.1328125 14.5546875 C-7.10048585 17.13906291 -7.10048585 17.13906291 -6 20 C-3.58380177 20.25030977 -3.58380177 20.25030977 -1 20 C-0.34 19.01 0.32 18.02 1 17 C1.99 17 2.98 17 4 17 C3.7095662 20.26738025 3.51431765 22.3867751 1.375 24.9375 C-2.22725913 26.54903698 -4.27110919 26.19857205 -8 25 C-12.09194299 20.17360571 -12.62167962 15.83984942 -12.3984375 9.59765625 C-11.81017217 5.762397 -10.57380452 3.87660505 -8 1 C-5.19084526 -0.40457737 -3.11189466 -0.24895157 0 0 Z " fill="#E4EFF5" transform="translate(676,167)"/>
<path d="M0 0 C4.62 0 9.24 0 14 0 C14 1.65 14 3.3 14 5 C10.7 5 7.4 5 4 5 C4 6.65 4 8.3 4 10 C6.64 10 9.28 10 12 10 C12 11.65 12 13.3 12 15 C9.36 15 6.72 15 4 15 C4 18.3 4 21.6 4 25 C2.68 25 1.36 25 0 25 C0 16.75 0 8.5 0 0 Z " fill="#D7E9F2" transform="translate(500,167)"/>
<path d="M0 0 C4.62 0 9.24 0 14 0 C14 1.65 14 3.3 14 5 C10.7 5 7.4 5 4 5 C4 6.65 4 8.3 4 10 C6.64 10 9.28 10 12 10 C12 11.65 12 13.3 12 15 C9.36 15 6.72 15 4 15 C4 18.3 4 21.6 4 25 C2.68 25 1.36 25 0 25 C0 16.75 0 8.5 0 0 Z " fill="#D7E9F2" transform="translate(476,167)"/>
<path d="M0 0 C4.95 0 9.9 0 15 0 C15 1.65 15 3.3 15 5 C13.35 5 11.7 5 10 5 C10 11.6 10 18.2 10 25 C8.35 25 6.7 25 5 25 C5 18.4 5 11.8 5 5 C3.35 5 1.7 5 0 5 C0 3.35 0 1.7 0 0 Z " fill="#CAE2EF" transform="translate(582,167)"/>
<path d="M0 0 C5.28 0 10.56 0 16 0 C16 1.65 16 3.3 16 5 C14.02 5 12.04 5 10 5 C10 11.93 10 18.86 10 26 C8.68 26 7.36 26 6 26 C6 18.74 6 11.48 6 4 C4.02 4 2.04 4 0 4 C0 2.68 0 1.36 0 0 Z " fill="#D4E7F1" transform="translate(799,167)"/>
<path d="M0 0 C2.375 0.9375 2.375 0.9375 4.375 3.9375 C4.95403312 8.02081147 4.93035216 11.73910849 3.1875 15.5 C1.375 16.9375 1.375 16.9375 -1.125 17.5 C-3.625 16.9375 -3.625 16.9375 -5.4375 14.9375 C-7.0580764 10.84341225 -7.11437754 8.34189786 -6.625 3.9375 C-4.58594256 0.84115352 -3.74721416 -0.08921938 0 0 Z " fill="#1180C1" transform="translate(464.625,171.0625)"/>
<path d="M0 0 C3.25696479 0.41755959 4.63443291 0.63443291 7 3 C7.30078125 5.2421875 7.30078125 5.2421875 7.3125 7.875 C7.32925781 8.73867187 7.34601562 9.60234375 7.36328125 10.4921875 C6.93089229 13.47706611 6.07097918 14.83511006 4 17 C1.5 17.5 1.5 17.5 -1 17 C-3.72443064 14.6513529 -3.98346837 13.15153994 -4.375 9.5625 C-3.95159861 5.5401868 -2.88012301 2.88012301 0 0 Z " fill="#1080C1" transform="translate(691,171)"/>
<path d="M0 0 C5.28 0 10.56 0 16 0 C16 1.32 16 2.64 16 4 C14.02 4 12.04 4 10 4 C10 10.93 10 17.86 10 25 C8.68 25 7.36 25 6 25 C6 18.4 6 11.8 6 5 C4.02 5 2.04 5 0 5 C0 3.35 0 1.7 0 0 Z " fill="#DAEAF3" transform="translate(723,167)"/>
<path d="M0 0 C0.33 0 0.66 0 1 0 C1.24402106 7.77728187 1.45655088 15.55496254 1.64697266 23.33374023 C1.71552362 25.98107462 1.79134205 28.62823104 1.87451172 31.27514648 C1.99266058 35.07512701 2.08484556 38.87497672 2.171875 42.67578125 C2.21439392 43.86335526 2.25691284 45.05092926 2.30072021 46.27449036 C2.32104309 47.37540512 2.34136597 48.47631989 2.36230469 49.6105957 C2.4022757 51.06620659 2.4022757 51.06620659 2.4430542 52.55122375 C2 55 2 55 0.19610596 56.80558777 C-3.07373431 58.58397974 -5.34686432 58.52187653 -9 58 C-11.8039909 55.48359791 -12.88548965 54.00769109 -13.3125 50.25 C-13 48 -13 48 -12 47 C-9.625 46.625 -9.625 46.625 -7 47 C-5.18116991 49.3832946 -4 50.95818337 -4 54 C-2.515 53.505 -2.515 53.505 -1 53 C-0.67 35.51 -0.34 18.02 0 0 Z " fill="#D66668" transform="translate(359,79)"/>
<path d="M0 0 C2.4375 0.8125 2.4375 0.8125 4.4375 2.8125 C4.703125 5.30859375 4.703125 5.30859375 4.6875 8.25 C4.69265625 9.21808594 4.6978125 10.18617188 4.703125 11.18359375 C4.4375 13.8125 4.4375 13.8125 2.4375 16.8125 C-0.6875 17 -0.6875 17 -3.5625 16.8125 C-5.3784434 13.69428643 -5.85872187 11.3474669 -5.875 7.75 C-5.89175781 6.89277344 -5.90851562 6.03554687 -5.92578125 5.15234375 C-5.5625 2.8125 -5.5625 2.8125 -4.203125 0.9921875 C-2.5625 -0.1875 -2.5625 -0.1875 0 0 Z " fill="#0B7DC0" transform="translate(825.5625,171.1875)"/>
<path d="M0 0 C1.32 0 2.64 0 4 0 C4 6.93 4 13.86 4 21 C6.97 21 9.94 21 13 21 C13 22.32 13 23.64 13 25 C8.71 25 4.42 25 0 25 C0 16.75 0 8.5 0 0 Z " fill="#E0EDF4" transform="translate(358,167)"/>
<path d="M0 0 C1.32 0 2.64 0 4 0 C4 6.6 4 13.2 4 20 C7.3 20 10.6 20 14 20 C14 21.32 14 22.64 14 24 C9.38 24 4.76 24 0 24 C0 16.08 0 8.16 0 0 Z " fill="#E7F1F7" transform="translate(341,168)"/>
<path d="M0 0 C5.94 0 11.88 0 18 0 C16.02 0.99 16.02 0.99 14 2 C12.00526858 3.58432731 11.12376229 4.40488863 10.60127258 6.9172821 C10.584618 7.99983025 10.584618 7.99983025 10.56762695 9.10424805 C10.54783279 9.92487228 10.52803864 10.74549652 10.50764465 11.59098816 C10.49805977 12.9129998 10.49805977 12.9129998 10.48828125 14.26171875 C10.47033005 15.16751175 10.45237885 16.07330475 10.43388367 17.00654602 C10.37969341 19.90014996 10.34585714 22.79358815 10.3125 25.6875 C10.27933461 27.64911165 10.24484568 29.61070141 10.20898438 31.57226562 C10.12396194 36.38139097 10.0571924 41.19046641 10 46 C9.34 46 8.68 46 8 46 C7.505 25.21 7.505 25.21 7 4 C4.69 3.01 2.38 2.02 0 1 C0 0.67 0 0.34 0 0 Z " fill="#CC3A3F" transform="translate(815,75)"/>
<path d="M0 0 C1.98 0 3.96 0 6 0 C8 2 8 2 8.265625 4.49609375 C8.26046875 5.46675781 8.2553125 6.43742188 8.25 7.4375 C8.25515625 8.40558594 8.2603125 9.37367188 8.265625 10.37109375 C8 13 8 13 6 16 C4.02 16 2.04 16 0 16 C0 10.72 0 5.44 0 0 Z " fill="#087CBF" transform="translate(432,172)"/>
<path d="M0 0 C0.99 0.33 1.98 0.66 3 1 C2.60045258 4.39615311 2.22512852 7.44380013 0.9375 10.625 C-0.09752133 13.24705404 -0.15959779 15.20703859 0 18 C2.475 18.99 2.475 18.99 5 20 C5 20.66 5 21.32 5 22 C-0.28 22 -5.56 22 -11 22 C-10.505 20.515 -10.505 20.515 -10 19 C-9.01 18.67 -8.02 18.34 -7 18 C-3.65925126 12.2580881 -1.72903623 6.39219456 0 0 Z " fill="#D04D51" transform="translate(386,114)"/>
<path d="M0 0 C0.66 0.33 1.32 0.66 2 1 C1.67 1.86625 1.34 2.7325 1 3.625 C0.01268659 6.95718275 -0.16420974 9.55159538 0 13 C2.475 13.99 2.475 13.99 5 15 C5 15.66 5 16.32 5 17 C-0.28 17 -5.56 17 -11 17 C-10 14 -10 14 -8.1875 12.375 C-5.51879147 9.47754502 -4.36833811 6.55807679 -2.9296875 2.92578125 C-2 1 -2 1 0 0 Z " fill="#D25458" transform="translate(271,119)"/>
<path d="M0 0 C0.86625 0.12375 1.7325 0.2475 2.625 0.375 C4.375 2.75 4.375 2.75 5.625 5.375 C5.955 6.035 6.285 6.695 6.625 7.375 C8.605 7.045 10.585 6.715 12.625 6.375 C11.625 9.375 11.625 9.375 10 10.5625 C6.6445848 11.7104052 4.14590156 11.81511269 0.625 11.375 C-2.1789909 8.85859791 -3.26048965 7.38269109 -3.6875 3.625 C-3.25923439 0.5414876 -3.08597071 0.48725853 0 0 Z " fill="#CF484C" transform="translate(319.375,125.625)"/>
<path d="M0 0 C0.66 0 1.32 0 2 0 C2.74507544 6.37305598 3.10349817 12.58311325 3 19 C0.47530701 17.7376535 0.34341224 16.80129523 -0.75 14.25 C-2.82023239 10.02611926 -4.93113374 7.53344503 -9 5 C-12.00382069 4.34122427 -14.92914053 4.07506545 -18 4 C-18 3.67 -18 3.34 -18 3 C-5.33029613 1.48291572 -5.33029613 1.48291572 0 4 C0 2.68 0 1.36 0 0 Z " fill="#D04C50" transform="translate(249,73)"/>
<path d="M0 0 C-1.6718853 8.49711119 -4.53962581 16.09057327 -8 24 C-8.66 23.67 -9.32 23.34 -10 23 C-10.66 24.32 -11.32 25.64 -12 27 C-13 25 -13 25 -11.890625 21.33203125 C-11.35149427 19.82273209 -10.80423855 18.31631699 -10.25 16.8125 C-9.98445313 16.06935547 -9.71890625 15.32621094 -9.4453125 14.56054688 C-4.18769172 0 -4.18769172 0 0 0 Z " fill="#D25659" transform="translate(284,88)"/>
<path d="M0 0 C0.99 0 1.98 0 3 0 C3 7.92 3 15.84 3 24 C2.01 24 1.02 24 0 24 C0 16.08 0 8.16 0 0 Z " fill="#F8FAFB" transform="translate(576,168)"/>
<path d="M0 0 C0.99 0 1.98 0 3 0 C3 7.92 3 15.84 3 24 C2.01 24 1.02 24 0 24 C0 16.08 0 8.16 0 0 Z " fill="#F7F9FA" transform="translate(401,168)"/>
<path d="M0 0 C0.12375 0.639375 0.2475 1.27875 0.375 1.9375 C0.684375 2.9584375 0.684375 2.9584375 1 4 C1.66 4.33 2.32 4.66 3 5 C1.33846988 10.85659906 -0.47041916 16.4590134 -3 22 C-3.99 22 -4.98 22 -6 22 C-7 20 -7 20 -5.8203125 16.19140625 C-5.26283258 14.64566648 -4.69736248 13.10279103 -4.125 11.5625 C-3.56510035 10.0221368 -3.00520437 8.48177227 -2.4453125 6.94140625 C-2.06656982 5.91575562 -2.06656982 5.91575562 -1.68017578 4.86938477 C-1.09308626 3.25583686 -0.54297431 1.62892292 0 0 Z " fill="#D45B5F" transform="translate(396,86)"/>
<path d="M0 0 C2.64 0 5.28 0 8 0 C8.042721 1.66611905 8.04063832 3.33382885 8 5 C7 6 7 6 3.4375 6.0625 C2.303125 6.041875 1.16875 6.02125 0 6 C0 4.02 0 2.04 0 0 Z " fill="#1683C2" transform="translate(623,172)"/>
<path d="M0 0 C2.64 0 5.28 0 8 0 C8.042721 1.66611905 8.04063832 3.33382885 8 5 C7 6 7 6 3.4375 6.0625 C2.303125 6.041875 1.16875 6.02125 0 6 C0 4.02 0 2.04 0 0 Z " fill="#1984C3" transform="translate(540,172)"/>
<path d="M0 0 C2.31 0 4.62 0 7 0 C7.042721 1.66611905 7.04063832 3.33382885 7 5 C6 6 6 6 2.9375 6.0625 C1.4834375 6.0315625 1.4834375 6.0315625 0 6 C0 4.02 0 2.04 0 0 Z " fill="#0C7DC0" transform="translate(842,172)"/>
<path d="M0 0 C2.31 0 4.62 0 7 0 C7.042721 1.66611905 7.04063832 3.33382885 7 5 C6 6 6 6 2.9375 6.0625 C1.4834375 6.0315625 1.4834375 6.0315625 0 6 C0 4.02 0 2.04 0 0 Z " fill="#0C7DC0" transform="translate(746,172)"/>
<path d="M0 0 C1.46726798 3.81489674 0.43336419 6.29011622 -1 10 C-1.99 10 -2.98 10 -4 10 C-4.33 9.34 -4.66 8.68 -5 8 C-2.51612903 1.25806452 -2.51612903 1.25806452 0 0 Z " fill="#D15155" transform="translate(394,98)"/>
<path d="M0 0 C0.33 0.66 0.66 1.32 1 2 C3.54941373 2.31241371 6.00361513 2.51303421 8.5625 2.625 C9.62887695 2.68300781 9.62887695 2.68300781 10.71679688 2.7421875 C12.47742425 2.83671783 14.23867728 2.91945817 16 3 C16 3.33 16 3.66 16 4 C9.4 4 2.8 4 -4 4 C-4 3.34 -4 2.68 -4 2 C-2.68 1.34 -1.36 0.68 0 0 Z " fill="#DC7476" transform="translate(413,132)"/>
<path d="M0 0 C0.66 0.33 1.32 0.66 2 1 C-1.63 4.63 -5.26 8.26 -9 12 C-9 8.00102358 -7.64683965 6.93298448 -5 4 C-3.36643049 2.62631655 -1.7074998 1.28062485 0 0 Z " fill="#EC4C50" transform="translate(57,42)"/>
<path d="M0 0 C0.66 0 1.32 0 2 0 C2.33 2.64 2.66 5.28 3 8 C1.68 8 0.36 8 -1 8 C-0.67 5.36 -0.34 2.72 0 0 Z " fill="#2589C5" transform="translate(328,174)"/>
<path d="M0 0 C0.99 0.33 1.98 0.66 3 1 C2.67 3.31 2.34 5.62 2 8 C1.01 8 0.02 8 -1 8 C-2 6 -2 6 -1.0625 2.875 C-0.5365625 1.451875 -0.5365625 1.451875 0 0 Z " fill="#D2585B" transform="translate(386,114)"/>
<path d="M0 0 C0.66 0.33 1.32 0.66 2 1 C2.40729228 3.32156597 2.74438677 5.6568787 3 8 C1.68 8 0.36 8 -1 8 C-0.67 5.36 -0.34 2.72 0 0 Z " fill="#2087C3" transform="translate(768,174)"/>
<path d="M0 0 C3.09162264 1.38589981 4.49183541 2.49183541 7 5 C3.7 4.01 0.4 3.02 -3 2 C-2.01 1.34 -1.02 0.68 0 0 Z " fill="#EE6063" transform="translate(144,43)"/>
<path d="M0 0 C-0.33 1.98 -0.66 3.96 -1 6 C-1.99 6 -2.98 6 -4 6 C-4.33 5.34 -4.66 4.68 -5 4 C-4.67 3.01 -4.34 2.02 -4 1 C-2 0 -2 0 0 0 Z " fill="#D15054" transform="translate(590,121)"/>
<path d="M0 0 C-0.33 0.66 -0.66 1.32 -1 2 C-4.63 1.67 -8.26 1.34 -12 1 C-12 0.67 -12 0.34 -12 0 C-3.42857143 -1.28571429 -3.42857143 -1.28571429 0 0 Z " fill="#D76A6C" transform="translate(243,76)"/>
</svg>
